<?xml version="1.0" encoding="utf-8"?>
<!-- Generator: Adobe Illustrator 25.2.0, SVG Export Plug-In . SVG Version: 6.00 Build 0)  -->
<svg version="1.1" id="Layer_1" xmlns="http://www.w3.org/2000/svg" xmlns:xlink="http://www.w3.org/1999/xlink" x="0px" y="0px"
	 viewBox="0 0 108 24" style="enable-background:new 0 0 108 24;" xml:space="preserve">
<style type="text/css">
	.st0{fill:#FF6200;}
	.st1{fill:#1E1E1E;}
</style>
<g>
	<circle class="st0" cx="63.17" cy="16.75" r="2.5"/>
	<g>
		<path class="st1" d="M6.7,5.82c-3.74,0-6.34,2.62-6.34,6.36c0,3.88,2.55,6.5,6.34,6.5c3.87,0,6.36-2.55,6.36-6.5
			C13.06,8.44,10.44,5.82,6.7,5.82z M6.7,17.67c-1.55,0-2.34-1.83-2.34-5.44c0-3.58,0.79-5.4,2.34-5.4c1.54,0,2.32,1.82,2.32,5.4
			C9.01,15.84,8.23,17.67,6.7,17.67z"/>
		<path class="st1" d="M23.32,5.82c-1.46,0-2.7,0.5-3.69,1.48L19.5,6.12l-0.4-0.29l-4.85,1.41v0.73l1.63,0.17
			c0.04,0.99,0.06,1.72,0.06,3.08v7.11c0,1.34-0.02,3.05-0.04,4.58l-1.47,0.15v0.86h6.99v-0.86l-1.69-0.2
			c-0.02-1.75-0.04-3.3-0.04-4.54v-0.97c0.85,0.87,1.89,1.31,3.11,1.31c3.17,0,5.46-2.73,5.46-6.5C28.26,8.38,26.27,5.82,23.32,5.82
			z M21.45,16.89c-0.64,0-1.18-0.08-1.7-0.48V8.26c0.66-0.58,1.17-0.69,1.83-0.69c1.85,0,2.67,1.43,2.67,4.64
			C24.25,16.89,22.15,16.89,21.45,16.89z"/>
		<path class="st1" d="M41.52,12.26c0.12-0.43,0.14-0.81,0.14-1.36c0-3.04-2.09-5.08-5.2-5.08c-3.19,0-6.41,2.19-6.41,6.39
			c0,3.93,2.52,6.47,6.43,6.47c2.26,0,4.09-1.1,5.01-3.01l0.05-0.1l-0.61-0.38l-0.07,0.09c-0.8,1.11-1.76,1.6-3.11,1.6
			c-2.22,0-3.57-1.65-3.7-4.54h7.44L41.52,12.26z M36.92,11.32l-2.86-0.02c0.09-2.85,0.88-4.47,2.16-4.47
			c1.16,0,1.88,1.06,1.88,2.77C38.09,10.94,37.83,11.32,36.92,11.32z"/>
		<path class="st1" d="M56.13,13v-2.86c0-2.74-1.33-4.31-3.64-4.31c-1.54,0-2.72,0.57-4.01,1.97l-0.12-1.68l-0.4-0.29l-4.83,1.38
			l-0.09,0.03v0.72l1.65,0.17c0.04,1.02,0.06,1.74,0.06,3.06V13c0,1.18-0.02,3.01-0.04,4.25l-1.47,0.13v0.91h6.6v-0.91l-1.25-0.11
			c-0.02-1.25-0.04-3.08-0.04-4.27V8.86c0.86-0.74,1.73-1.17,2.38-1.17c0.84,0,1.39,0.37,1.39,2.18V13c0,1.25-0.02,3.05-0.04,4.25
			l-1.39,0.13v0.91h6.62v-0.91l-1.32-0.11C56.15,15.96,56.13,14.15,56.13,13z"/>
		<path class="st1" d="M80.8,16.49c-0.42,0.65-0.63,0.77-0.89,0.77c-0.26,0-0.56-0.11-0.56-0.99v-5.85c0-3.23-1.34-4.6-4.5-4.6
			c-3.38,0-5.43,1.26-5.62,3.46l0,0.02l0,0.02c0.19,0.76,0.78,1.2,1.64,1.2c1.05,0,1.71-0.82,1.77-2.18l0.14-1.45
			c0.26-0.05,0.51-0.07,0.81-0.07c1.61,0,2.07,0.63,2.07,2.81v1.23c-0.73,0.18-1.47,0.38-2.07,0.54c-3.52,1.02-4.77,2.11-4.77,4.19
			c0,1.84,1.34,3.08,3.33,3.08c1.79,0,2.68-0.73,3.66-1.78c0.41,1.18,1.3,1.78,2.65,1.78c1.47,0,2.33-0.53,2.9-1.77l0.04-0.09
			l-0.55-0.45L80.8,16.49z M75.68,16.02c-0.79,0.69-1.26,0.93-1.79,0.93c-1.01,0-1.53-0.6-1.53-1.79c0-1.5,0.72-2.49,2.28-3.13
			c0.22-0.09,0.57-0.2,1.04-0.32V16.02z"/>
		<path class="st1" d="M94.66,3.9l0.09-3.55l-0.41-0.26l-5.04,0.94l-0.1,0.02v0.78l1.8,0.17v5.1c-0.83-0.86-1.82-1.28-3.02-1.28
			c-3.33,0-5.57,2.62-5.57,6.52c0,3.79,2.12,6.34,5.27,6.34c1.24,0,2.35-0.45,3.32-1.33l0.16,1.22l4.93-0.27v-0.9l-1.43-0.09V3.9z
			 M90.88,16.39c-0.46,0.34-0.96,0.5-1.59,0.5c-1.86,0-2.84-1.62-2.84-4.68c0-3.08,0.99-4.64,2.93-4.64c0.56,0,1.05,0.17,1.5,0.5
			V16.39z"/>
		<path class="st1" d="M104.24,10.76l-1.3-0.37c-1.82-0.55-2.07-1.22-2.07-1.86c0-1.01,0.8-1.64,2.1-1.64
			c0.59,0,1.03,0.08,1.48,0.29l0.85,2.6h1.43l0.19-2.94l-0.07-0.04c-1.22-0.6-2.36-0.99-3.94-0.99c-3.13,0-5.16,1.59-5.16,4.06
			c0,1.81,1.06,3.02,3.23,3.69l1.27,0.37c1.74,0.54,2.09,1.16,2.09,1.99c0,1.1-0.83,1.66-2.47,1.66c-0.64,0-1.17-0.09-1.7-0.29
			l-0.69-2.9h-1.62l-0.19,3.15l0.07,0.04c1.38,0.76,2.74,1.1,4.41,1.1c3.43,0,5.49-1.54,5.49-4.12
			C107.65,12.67,106.53,11.43,104.24,10.76z"/>
	</g>
</g>
</svg>
