<svg width="40" height="22" viewBox="0 0 40 22" fill="none" xmlns="http://www.w3.org/2000/svg">
<path d="M0.444148 4.974C0.444148 4.402 0.554148 3.863 0.774148 3.357C0.994148 2.851 1.29115 2.411 1.66515 2.037C2.03915 1.65567 2.47915 1.355 2.98515 1.135C3.49115 0.914999 4.03015 0.804999 4.60215 0.804999C5.17415 0.804999 5.71315 0.914999 6.21915 1.135C6.72515 1.355 7.16515 1.65567 7.53915 2.037C7.92048 2.411 8.22115 2.851 8.44115 3.357C8.66115 3.863 8.77115 4.402 8.77115 4.974C8.77115 5.546 8.66115 6.085 8.44115 6.591C8.22115 7.097 7.92048 7.54067 7.53915 7.922C7.16515 8.296 6.72515 8.593 6.21915 8.813C5.71315 9.033 5.17415 9.143 4.60215 9.143C4.03015 9.143 3.49115 9.033 2.98515 8.813C2.47915 8.593 2.03915 8.296 1.66515 7.922C1.29115 7.54067 0.994148 7.097 0.774148 6.591C0.554148 6.085 0.444148 5.546 0.444148 4.974ZM2.62215 4.974C2.62215 5.25267 2.67348 5.51667 2.77615 5.766C2.87882 6.01533 3.01815 6.23533 3.19415 6.426C3.37748 6.61667 3.59015 6.77067 3.83215 6.888C4.07415 6.998 4.33082 7.053 4.60215 7.053C4.87348 7.053 5.13015 6.998 5.37215 6.888C5.61415 6.77067 5.82682 6.61667 6.01015 6.426C6.19348 6.23533 6.33648 6.01533 6.43915 5.766C6.54182 5.51667 6.59315 5.25267 6.59315 4.974C6.59315 4.70267 6.54182 4.44233 6.43915 4.193C6.33648 3.93633 6.19348 3.71633 6.01015 3.533C5.82682 3.34233 5.61415 3.192 5.37215 3.082C5.13015 2.96467 4.87348 2.906 4.60215 2.906C4.33082 2.906 4.07415 2.96467 3.83215 3.082C3.59015 3.192 3.37748 3.34233 3.19415 3.533C3.01815 3.71633 2.87882 3.93633 2.77615 4.193C2.67348 4.44233 2.62215 4.70267 2.62215 4.974ZM9.92752 8.736V1.212C9.92752 1.13867 9.95319 1.07633 10.0045 1.025C10.0559 0.973666 10.1182 0.947999 10.1915 0.947999H13.1945C14.3459 0.947999 15.2882 1.28533 16.0215 1.96C16.4175 2.32667 16.7182 2.763 16.9235 3.269C17.1289 3.775 17.2315 4.34333 17.2315 4.974C17.2315 5.60467 17.1289 6.17667 16.9235 6.69C16.7182 7.196 16.4175 7.63233 16.0215 7.999C15.6549 8.329 15.2332 8.57833 14.7565 8.747C14.2872 8.91567 13.7665 9 13.1945 9H10.1915C10.1182 9 10.0559 8.97433 10.0045 8.923C9.95319 8.87167 9.92752 8.80933 9.92752 8.736ZM12.3695 6.976H13.1945C13.3999 6.976 13.6125 6.95033 13.8325 6.899C14.0525 6.84767 14.2505 6.75233 14.4265 6.613C14.6025 6.46633 14.7455 6.26467 14.8555 6.008C14.9729 5.744 15.0315 5.403 15.0315 4.985C15.0315 4.567 14.9729 4.22967 14.8555 3.973C14.7455 3.709 14.5989 3.50733 14.4155 3.368C14.2395 3.22133 14.0415 3.12233 13.8215 3.071C13.6089 3.01967 13.3999 2.994 13.1945 2.994H12.3695C12.2962 2.994 12.2339 3.01967 12.1825 3.071C12.1312 3.12233 12.1055 3.18467 12.1055 3.258V6.712C12.1055 6.78533 12.1312 6.84767 12.1825 6.899C12.2339 6.95033 12.2962 6.976 12.3695 6.976ZM20.467 9H18.828C18.7547 9 18.6923 8.97433 18.641 8.923C18.5897 8.87167 18.564 8.80933 18.564 8.736V1.212C18.564 1.13867 18.5897 1.07633 18.641 1.025C18.6923 0.973666 18.7547 0.947999 18.828 0.947999H22.249C22.6743 0.947999 23.0667 1.02133 23.426 1.168C23.7853 1.30733 24.0897 1.50533 24.339 1.762C24.5957 2.01867 24.7937 2.323 24.933 2.675C25.0797 3.027 25.153 3.41567 25.153 3.841C25.153 4.07567 25.1237 4.31033 25.065 4.545C25.0137 4.77233 24.9367 4.98867 24.834 5.194C24.7313 5.39933 24.6103 5.58633 24.471 5.755C24.3317 5.91633 24.174 6.052 23.998 6.162C23.9393 6.206 23.899 6.261 23.877 6.327C23.8623 6.38567 23.877 6.44433 23.921 6.503C24.1997 6.86967 24.493 7.24733 24.801 7.636C25.109 8.02467 25.384 8.38033 25.626 8.703C25.67 8.76167 25.681 8.82767 25.659 8.901C25.637 8.967 25.5893 9 25.516 9H23.47C23.3967 9 23.316 8.98167 23.228 8.945C23.1473 8.901 23.085 8.84967 23.041 8.791C22.8063 8.483 22.5717 8.17133 22.337 7.856C22.1097 7.54067 21.8823 7.22167 21.655 6.899C21.611 6.84033 21.5487 6.79267 21.468 6.756C21.3873 6.712 21.3103 6.69 21.237 6.69H20.995C20.9217 6.69 20.8593 6.71567 20.808 6.767C20.7567 6.81833 20.731 6.88067 20.731 6.954V8.736C20.731 8.80933 20.7053 8.87167 20.654 8.923C20.6027 8.97433 20.5403 9 20.467 9ZM20.995 4.666H22.161C22.249 4.666 22.3407 4.65133 22.436 4.622C22.5313 4.58533 22.6193 4.534 22.7 4.468C22.7807 4.39467 22.8467 4.30667 22.898 4.204C22.9493 4.10133 22.975 3.98033 22.975 3.841C22.975 3.76767 22.9603 3.68333 22.931 3.588C22.909 3.48533 22.865 3.39 22.799 3.302C22.7403 3.20667 22.656 3.12967 22.546 3.071C22.4433 3.005 22.315 2.972 22.161 2.972H20.995C20.9217 2.972 20.8593 2.99767 20.808 3.049C20.7567 3.10033 20.731 3.16267 20.731 3.236V4.402C20.731 4.47533 20.7567 4.53767 20.808 4.589C20.8593 4.64033 20.9217 4.666 20.995 4.666ZM28.483 9H26.822C26.7413 9 26.6753 8.97433 26.624 8.923C26.58 8.87167 26.558 8.80933 26.558 8.736V1.223C26.558 1.14967 26.58 1.08733 26.624 1.036C26.6753 0.984666 26.7413 0.959 26.822 0.959H28.483C28.5563 0.959 28.6186 0.984666 28.67 1.036C28.7213 1.08733 28.747 1.14967 28.747 1.223V8.736C28.747 8.80933 28.7213 8.87167 28.67 8.923C28.6186 8.97433 28.5563 9 28.483 9ZM30.5273 4.149C30.4613 4.17833 30.3879 4.182 30.3073 4.16C30.2266 4.13067 30.1643 4.08667 30.1203 4.028L29.9223 3.742C29.8856 3.68333 29.8709 3.61733 29.8783 3.544C29.8856 3.47067 29.9186 3.40833 29.9773 3.357C30.0579 3.28367 30.1276 3.21033 30.1863 3.137C30.2523 3.06367 30.3146 2.99033 30.3733 2.917C30.4173 2.85833 30.4246 2.79967 30.3953 2.741C30.3659 2.68233 30.3219 2.631 30.2633 2.587C30.1386 2.50633 30.0433 2.39267 29.9773 2.246C29.9113 2.09933 29.8709 1.94167 29.8563 1.773C29.8416 1.45767 29.9406 1.19367 30.1533 0.981C30.3659 0.760999 30.6263 0.643666 30.9343 0.629C31.1176 0.621666 31.2863 0.654666 31.4403 0.728C31.5943 0.794 31.7226 0.889333 31.8253 1.014C31.9353 1.13133 32.0196 1.27067 32.0783 1.432C32.1369 1.59333 32.1663 1.76567 32.1663 1.949C32.1663 2.433 32.0306 2.86567 31.7593 3.247C31.4879 3.621 31.0773 3.92167 30.5273 4.149ZM33.8283 6.239C34.2243 6.49567 34.6166 6.69733 35.0053 6.844C35.394 6.99067 35.757 7.064 36.0943 7.064C36.417 7.064 36.6626 7.02 36.8313 6.932C37 6.83667 37.0843 6.69733 37.0843 6.514C37.0843 6.41867 37.0476 6.34533 36.9743 6.294C36.901 6.23533 36.802 6.18767 36.6773 6.151C36.56 6.11433 36.4206 6.085 36.2593 6.063C36.098 6.041 35.933 6.01167 35.7643 5.975C35.603 5.94567 35.4123 5.91267 35.1923 5.876C34.9796 5.832 34.7596 5.77333 34.5323 5.7C34.305 5.61933 34.0776 5.52033 33.8503 5.403C33.6303 5.28567 33.4323 5.13533 33.2563 4.952C33.0803 4.76867 32.9373 4.55233 32.8273 4.303C32.7246 4.04633 32.6733 3.74567 32.6733 3.401C32.6733 2.895 32.7723 2.477 32.9703 2.147C33.1683 1.817 33.4176 1.55667 33.7183 1.366C34.0263 1.168 34.3673 1.03233 34.7413 0.959C35.1153 0.878333 35.4783 0.838 35.8303 0.838C36.4463 0.838 36.9963 0.929666 37.4803 1.113C37.9716 1.289 38.441 1.54933 38.8883 1.894C38.947 1.94533 38.98 2.00767 38.9873 2.081C38.9946 2.15433 38.9763 2.22033 38.9323 2.279L38.0743 3.5C38.0303 3.55867 37.9716 3.59533 37.8983 3.61C37.825 3.62467 37.759 3.61 37.7003 3.566C37.3263 3.33133 36.978 3.16633 36.6553 3.071C36.3326 2.96833 36.0356 2.917 35.7643 2.917C35.6836 2.917 35.5883 2.92067 35.4783 2.928C35.3756 2.928 35.2766 2.94267 35.1813 2.972C35.086 2.994 35.0053 3.03433 34.9393 3.093C34.8806 3.15167 34.8513 3.23233 34.8513 3.335C34.8513 3.43767 34.9283 3.52933 35.0823 3.61C35.2363 3.69067 35.4123 3.76033 35.6103 3.819C35.8083 3.87767 35.999 3.92533 36.1823 3.962C36.3656 3.99133 36.483 4.00967 36.5343 4.017C36.7983 4.06833 37.088 4.14533 37.4033 4.248C37.7186 4.34333 38.012 4.49 38.2833 4.688C38.562 4.87867 38.793 5.13167 38.9763 5.447C39.167 5.755 39.2623 6.14367 39.2623 6.613C39.2623 7.053 39.1853 7.43433 39.0313 7.757C38.8773 8.07233 38.661 8.33267 38.3823 8.538C38.111 8.74333 37.781 8.89733 37.3923 9C37.011 9.09533 36.5856 9.143 36.1163 9.143C35.735 9.143 35.3793 9.11 35.0493 9.044C34.7193 8.98533 34.4113 8.901 34.1253 8.791C33.8393 8.681 33.5716 8.55267 33.3223 8.406C33.0803 8.252 32.8566 8.09067 32.6513 7.922C32.5926 7.878 32.5596 7.81933 32.5523 7.746C32.545 7.66533 32.5633 7.59567 32.6073 7.537L33.4543 6.316C33.4983 6.25733 33.557 6.22067 33.6303 6.206C33.7036 6.19133 33.7696 6.20233 33.8283 6.239ZM10.0496 18.833H9.09264C9.01931 18.833 8.95697 18.8587 8.90564 18.91C8.85431 18.9613 8.82864 19.0237 8.82864 19.097V20.736C8.82864 20.8093 8.80297 20.8717 8.75164 20.923C8.70031 20.9743 8.63797 21 8.56464 21H6.90364C6.83031 21 6.76797 20.9743 6.71664 20.923C6.66531 20.8717 6.63964 20.8093 6.63964 20.736V13.212C6.63964 13.1387 6.66531 13.0763 6.71664 13.025C6.76797 12.9737 6.83031 12.948 6.90364 12.948H10.2696C10.6803 12.948 11.0653 13.025 11.4246 13.179C11.7913 13.333 12.1066 13.5457 12.3706 13.817C12.642 14.0883 12.8546 14.4037 13.0086 14.763C13.17 15.1223 13.2506 15.5073 13.2506 15.918C13.2506 16.3287 13.1846 16.7137 13.0526 17.073C12.9206 17.425 12.719 17.733 12.4476 17.997C12.1836 18.2537 11.85 18.459 11.4466 18.613C11.0506 18.7597 10.585 18.833 10.0496 18.833ZM10.1266 14.972H9.09264C9.01931 14.972 8.95697 14.9977 8.90564 15.049C8.85431 15.1003 8.82864 15.1627 8.82864 15.236V16.534C8.82864 16.6073 8.85431 16.6697 8.90564 16.721C8.95697 16.7723 9.01931 16.798 9.09264 16.798H10.2696C10.5483 16.798 10.75 16.71 10.8746 16.534C11.0066 16.3507 11.0726 16.1453 11.0726 15.918C11.0726 15.8007 11.0506 15.687 11.0066 15.577C10.97 15.4597 10.9113 15.357 10.8306 15.269C10.75 15.181 10.651 15.1113 10.5336 15.06C10.4163 15.0013 10.2806 14.972 10.1266 14.972ZM16.1187 21H14.4577C14.3771 21 14.3111 20.9743 14.2597 20.923C14.2157 20.8717 14.1937 20.8093 14.1937 20.736V13.223C14.1937 13.1497 14.2157 13.0873 14.2597 13.036C14.3111 12.9847 14.3771 12.959 14.4577 12.959H16.1187C16.1921 12.959 16.2544 12.9847 16.3057 13.036C16.3571 13.0873 16.3827 13.1497 16.3827 13.223V20.736C16.3827 20.8093 16.3571 20.8717 16.3057 20.923C16.2544 20.9743 16.1921 21 16.1187 21ZM25.621 18.855C25.4083 19.1997 25.1737 19.515 24.917 19.801C24.6603 20.0797 24.3707 20.318 24.048 20.516C23.7327 20.714 23.3807 20.868 22.992 20.978C22.6033 21.088 22.1743 21.143 21.705 21.143C21.1183 21.143 20.5683 21.033 20.055 20.813C19.5417 20.593 19.0907 20.296 18.702 19.922C18.3207 19.548 18.02 19.108 17.8 18.602C17.58 18.096 17.47 17.557 17.47 16.985C17.47 16.413 17.58 15.874 17.8 15.368C18.02 14.862 18.3207 14.422 18.702 14.048C19.0907 13.674 19.5417 13.377 20.055 13.157C20.5683 12.937 21.1183 12.827 21.705 12.827C22.189 12.827 22.6253 12.882 23.014 12.992C23.4027 13.102 23.7547 13.256 24.07 13.454C24.3853 13.652 24.6677 13.894 24.917 14.18C25.1737 14.4587 25.4083 14.7667 25.621 15.104C25.6577 15.1627 25.665 15.225 25.643 15.291C25.621 15.357 25.577 15.4047 25.511 15.434L23.949 16.05C23.8757 16.0793 23.8023 16.0793 23.729 16.05C23.6557 16.0207 23.6007 15.9767 23.564 15.918C23.3513 15.5807 23.0947 15.324 22.794 15.148C22.4933 14.9647 22.1303 14.873 21.705 14.873C21.4263 14.873 21.1623 14.9317 20.913 15.049C20.671 15.1663 20.4583 15.324 20.275 15.522C20.0917 15.7127 19.9487 15.9363 19.846 16.193C19.7433 16.4497 19.692 16.7137 19.692 16.985C19.692 17.2637 19.7433 17.5313 19.846 17.788C19.9487 18.0373 20.0917 18.2573 20.275 18.448C20.4583 18.6387 20.671 18.7927 20.913 18.91C21.1623 19.0273 21.4263 19.086 21.705 19.086C22.1083 19.086 22.4713 18.9907 22.794 18.8C23.124 18.602 23.3843 18.349 23.575 18.041C23.6117 17.9823 23.663 17.9383 23.729 17.909C23.8023 17.8797 23.8757 17.8797 23.949 17.909L25.511 18.525C25.577 18.5543 25.621 18.602 25.643 18.668C25.665 18.7267 25.6577 18.789 25.621 18.855ZM30.9695 20.802L28.8355 18.415C28.7842 18.3563 28.7402 18.3343 28.7035 18.349C28.6742 18.3637 28.6595 18.4077 28.6595 18.481V20.736C28.6595 20.8093 28.6338 20.8717 28.5825 20.923C28.5312 20.9743 28.4688 21 28.3955 21H26.7455C26.6648 21 26.5988 20.9743 26.5475 20.923C26.5035 20.8717 26.4815 20.8093 26.4815 20.736V13.212C26.4815 13.1387 26.5035 13.0763 26.5475 13.025C26.5988 12.9737 26.6648 12.948 26.7455 12.948H28.3955C28.4688 12.948 28.5312 12.9737 28.5825 13.025C28.6338 13.0763 28.6595 13.1387 28.6595 13.212V15.742C28.6595 15.8153 28.6742 15.8593 28.7035 15.874C28.7328 15.8813 28.7695 15.8557 28.8135 15.797L30.7935 13.168C30.8375 13.1093 30.8998 13.0617 30.9805 13.025C31.0612 12.981 31.1418 12.959 31.2225 12.959H33.3235C33.4042 12.959 33.4555 12.9957 33.4775 13.069C33.4995 13.135 33.4885 13.1973 33.4445 13.256L30.5515 16.875C30.5075 16.9337 30.4855 17.0033 30.4855 17.084C30.4928 17.1573 30.5222 17.2197 30.5735 17.271C30.8228 17.5423 31.0868 17.8247 31.3655 18.118C31.6442 18.4113 31.9192 18.7083 32.1905 19.009C32.4692 19.3023 32.7405 19.5957 33.0045 19.889C33.2758 20.175 33.5325 20.4427 33.7745 20.692C33.8258 20.7507 33.8442 20.8167 33.8295 20.89C33.8148 20.9633 33.7672 21 33.6865 21H31.4095C31.3288 21 31.2445 20.9817 31.1565 20.945C31.0758 20.9083 31.0135 20.8607 30.9695 20.802Z" fill="white"/>
</svg>
