<svg width="22" height="6" viewBox="0 0 22 6" fill="none" xmlns="http://www.w3.org/2000/svg">
<path d="M5.936 0.336V5.808C5.936 5.86133 5.91733 5.90667 5.88 5.944C5.84267 5.98133 5.79733 6 5.744 6H4.56C4.50667 6 4.45067 5.984 4.392 5.952C4.33333 5.92 4.288 5.88267 4.256 5.84L2.168 2.904C2.136 2.86133 2.10133 2.84533 2.064 2.856C2.032 2.86133 2.016 2.89067 2.016 2.944V5.808C2.016 5.86133 1.99733 5.90667 1.96 5.944C1.92267 5.98133 1.87733 6 1.824 6H0.632C0.578667 6 0.533333 5.98133 0.496 5.944C0.458667 5.90667 0.44 5.86133 0.44 5.808V0.336C0.44 0.282666 0.458667 0.237333 0.496 0.2C0.533333 0.162666 0.578667 0.144 0.632 0.144H1.832C1.88533 0.144 1.94133 0.16 2 0.192C2.05867 0.218667 2.104 0.253333 2.136 0.296L4.216 3.232C4.248 3.27467 4.28 3.29333 4.312 3.288C4.34933 3.28267 4.368 3.25333 4.368 3.2V0.336C4.368 0.282666 4.38667 0.237333 4.424 0.2C4.46133 0.162666 4.50667 0.144 4.56 0.144H5.744C5.79733 0.144 5.84267 0.162666 5.88 0.2C5.91733 0.237333 5.936 0.282666 5.936 0.336ZM8.71113 1.808V2.144C8.71113 2.19733 8.72979 2.24267 8.76713 2.28C8.80446 2.31733 8.84979 2.336 8.90313 2.336H11.0711C11.1245 2.336 11.1698 2.35467 11.2071 2.392C11.2445 2.42933 11.2631 2.47467 11.2631 2.528V3.632C11.2631 3.68533 11.2445 3.73067 11.2071 3.768C11.1698 3.80533 11.1245 3.824 11.0711 3.824H8.90313C8.84979 3.824 8.80446 3.84267 8.76713 3.88C8.72979 3.91733 8.71113 3.96267 8.71113 4.016V4.32C8.71113 4.37333 8.72979 4.41867 8.76713 4.456C8.80446 4.49333 8.84979 4.512 8.90313 4.512H11.3911C11.4445 4.512 11.4898 4.53067 11.5271 4.568C11.5645 4.60533 11.5831 4.65067 11.5831 4.704V5.808C11.5831 5.86133 11.5645 5.90667 11.5271 5.944C11.4898 5.98133 11.4445 6 11.3911 6H7.31913C7.26579 6 7.22046 5.98133 7.18313 5.944C7.14579 5.90667 7.12713 5.86133 7.12713 5.808V0.336C7.12713 0.282666 7.14579 0.237333 7.18313 0.2C7.22046 0.162666 7.26579 0.144 7.31913 0.144H11.3911C11.4445 0.144 11.4898 0.162666 11.5271 0.2C11.5645 0.237333 11.5831 0.282666 11.5831 0.336V1.424C11.5831 1.47733 11.5645 1.52267 11.5271 1.56C11.4898 1.59733 11.4445 1.616 11.3911 1.616H8.90313C8.84979 1.616 8.80446 1.63467 8.76713 1.672C8.72979 1.70933 8.71113 1.75467 8.71113 1.808ZM12.1721 0.376C12.1454 0.312 12.1427 0.258666 12.1641 0.216C12.1907 0.168 12.2334 0.144 12.2921 0.144H13.5961C13.6494 0.144 13.7001 0.162666 13.7481 0.2C13.7961 0.232 13.8281 0.272 13.8441 0.32L14.7561 2.984C14.7721 3.03733 14.7987 3.064 14.8361 3.064C14.8787 3.064 14.9081 3.03733 14.9241 2.984L15.8041 0.328C15.8201 0.274666 15.8521 0.232 15.9001 0.2C15.9481 0.162666 16.0014 0.144 16.0601 0.144H17.1241C17.1827 0.144 17.2361 0.162666 17.2841 0.2C17.3321 0.232 17.3641 0.274666 17.3801 0.328L18.2601 3C18.2761 3.05333 18.3027 3.08 18.3401 3.08C18.3827 3.08 18.4147 3.05333 18.4361 3L19.3561 0.32C19.3774 0.272 19.4121 0.232 19.4601 0.2C19.5081 0.162666 19.5614 0.144 19.6201 0.144H20.9161C20.9747 0.144 21.0147 0.168 21.0361 0.216C21.0574 0.258666 21.0601 0.304 21.0441 0.352L19.1081 5.816C19.0867 5.86933 19.0521 5.91467 19.0041 5.952C18.9561 5.984 18.9027 6 18.8441 6H17.8121C17.7534 6 17.7001 5.984 17.6521 5.952C17.6041 5.91467 17.5721 5.86933 17.5561 5.816L16.6761 3.152C16.6601 3.09867 16.6307 3.072 16.5881 3.072C16.5507 3.072 16.5241 3.09867 16.5081 3.152L15.6281 5.816C15.6121 5.86933 15.5801 5.91467 15.5321 5.952C15.4841 5.984 15.4307 6 15.3721 6H14.3401C14.2814 6 14.2281 5.98133 14.1801 5.944C14.1321 5.90133 14.1027 5.85867 14.0921 5.816L12.1721 0.376Z" fill="#FF6200"/>
</svg>
