<svg width="19" height="18" viewBox="0 0 19 18" fill="none" xmlns="http://www.w3.org/2000/svg">
<path d="M6.7175 9.9675C6.6472 10.0372 6.59141 10.1202 6.55333 10.2116C6.51526 10.303 6.49565 10.401 6.49565 10.5C6.49565 10.599 6.51526 10.697 6.55333 10.7884C6.59141 10.8798 6.6472 10.9628 6.7175 11.0325L8.9675 13.2825C9.03722 13.3528 9.12017 13.4086 9.21157 13.4467C9.30296 13.4847 9.40099 13.5043 9.5 13.5043C9.59901 13.5043 9.69704 13.4847 9.78843 13.4467C9.87983 13.4086 9.96278 13.3528 10.0325 13.2825L12.2825 11.0325C12.4237 10.8913 12.5031 10.6997 12.5031 10.5C12.5031 10.3003 12.4237 10.1087 12.2825 9.9675C12.1413 9.82627 11.9497 9.74693 11.75 9.74693C11.5503 9.74693 11.3587 9.82627 11.2175 9.9675L10.25 10.9425V2.25C10.25 2.05109 10.171 1.86032 10.0303 1.71967C9.88968 1.57902 9.69891 1.5 9.5 1.5C9.30109 1.5 9.11032 1.57902 8.96967 1.71967C8.82902 1.86032 8.75 2.05109 8.75 2.25V10.9425L7.7825 9.9675C7.71278 9.8972 7.62983 9.84141 7.53843 9.80333C7.44704 9.76525 7.34901 9.74565 7.25 9.74565C7.15099 9.74565 7.05296 9.76525 6.96157 9.80333C6.87017 9.84141 6.78722 9.8972 6.7175 9.9675ZM14 6.75H12.5C12.3011 6.75 12.1103 6.82902 11.9697 6.96967C11.829 7.11032 11.75 7.30109 11.75 7.5C11.75 7.69891 11.829 7.88968 11.9697 8.03033C12.1103 8.17098 12.3011 8.25 12.5 8.25H14C14.1989 8.25 14.3897 8.32902 14.5303 8.46967C14.671 8.61032 14.75 8.80109 14.75 9V14.25C14.75 14.4489 14.671 14.6397 14.5303 14.7803C14.3897 14.921 14.1989 15 14 15H5C4.80109 15 4.61032 14.921 4.46967 14.7803C4.32902 14.6397 4.25 14.4489 4.25 14.25V9C4.25 8.80109 4.32902 8.61032 4.46967 8.46967C4.61032 8.32902 4.80109 8.25 5 8.25H6.5C6.69891 8.25 6.88968 8.17098 7.03033 8.03033C7.17098 7.88968 7.25 7.69891 7.25 7.5C7.25 7.30109 7.17098 7.11032 7.03033 6.96967C6.88968 6.82902 6.69891 6.75 6.5 6.75H5C4.40326 6.75 3.83097 6.98705 3.40901 7.40901C2.98705 7.83097 2.75 8.40326 2.75 9V14.25C2.75 14.8467 2.98705 15.419 3.40901 15.841C3.83097 16.2629 4.40326 16.5 5 16.5H14C14.5967 16.5 15.169 16.2629 15.591 15.841C16.0129 15.419 16.25 14.8467 16.25 14.25V9C16.25 8.40326 16.0129 7.83097 15.591 7.40901C15.169 6.98705 14.5967 6.75 14 6.75Z" fill="white"/>
</svg>
