<svg width="24" height="24" viewBox="0 0 24 24" fill="none" xmlns="http://www.w3.org/2000/svg">
<path d="M20.1598 4.61C19.0981 3.548 17.6905 2.90232 16.193 2.79038C14.6955 2.67843 13.2076 3.10766 11.9998 4C10.7274 3.05363 9.14378 2.62451 7.56771 2.79903C5.99164 2.97356 4.54023 3.73877 3.50576 4.94058C2.47129 6.14239 1.93061 7.69152 1.99259 9.27601C2.05457 10.8605 2.71461 12.3627 3.83979 13.48L11.2898 20.93C11.3828 21.0237 11.4934 21.0981 11.6152 21.1489C11.7371 21.1997 11.8678 21.2258 11.9998 21.2258C12.1318 21.2258 12.2625 21.1997 12.3844 21.1489C12.5062 21.0981 12.6168 21.0237 12.7098 20.93L20.1598 13.48C20.7424 12.8977 21.2047 12.2063 21.52 11.4454C21.8354 10.6844 21.9977 9.86873 21.9977 9.045C21.9977 8.22127 21.8354 7.40561 21.52 6.64463C21.2047 5.88365 20.7424 5.19227 20.1598 4.61Z" fill="#FF0000"/>
</svg>
