<svg width="18" height="18" viewBox="0 0 18 18" fill="none" xmlns="http://www.w3.org/2000/svg">
<g clip-path="url(#clip0_379_741)">
<path fill-rule="evenodd" clip-rule="evenodd" d="M11.7803 8.46964C11.9209 8.61029 11.9999 8.80102 11.9999 8.99989C11.9999 9.19876 11.9209 9.38949 11.7803 9.53014L7.53751 13.7729C7.46833 13.8445 7.38557 13.9017 7.29407 13.941C7.20256 13.9803 7.10415 14.001 7.00456 14.0018C6.90498 14.0027 6.80622 13.9837 6.71405 13.946C6.62188 13.9083 6.53814 13.8526 6.46772 13.7822C6.3973 13.7118 6.34161 13.628 6.3039 13.5359C6.26619 13.4437 6.24721 13.3449 6.24808 13.2453C6.24894 13.1458 6.26963 13.0473 6.30894 12.9558C6.34824 12.8643 6.40538 12.7816 6.47701 12.7124L10.1895 8.99989L6.47701 5.28739C6.34039 5.14594 6.2648 4.95649 6.26651 4.75984C6.26822 4.56319 6.34709 4.37508 6.48615 4.23603C6.6252 4.09697 6.81331 4.01809 7.00996 4.01639C7.20661 4.01468 7.39606 4.09027 7.53751 4.22689L11.7803 8.46964Z" fill="black"/>
</g>
<defs>
<clipPath id="clip0_379_741">
<rect width="18" height="18" fill="white"/>
</clipPath>
</defs>
</svg>
