<svg width="268" height="97" viewBox="0 0 268 97" fill="none" xmlns="http://www.w3.org/2000/svg">
<path d="M9.168 53.816V50.264C8.256 50.136 7.432 49.896 6.696 49.544C5.976 49.192 5.352 48.76 4.824 48.248C4.312 47.736 3.92 47.144 3.648 46.472C3.376 45.8 3.24 45.072 3.24 44.288C3.24 43.408 3.416 42.592 3.768 41.84C4.12 41.072 4.616 40.416 5.256 39.872C5.912 39.312 6.696 38.88 7.608 38.576C8.536 38.256 9.568 38.096 10.704 38.096C11.84 38.096 12.864 38.256 13.776 38.576C14.704 38.88 15.488 39.312 16.128 39.872C16.784 40.416 17.288 41.072 17.64 41.84C17.992 42.592 18.168 43.408 18.168 44.288C18.168 45.072 18.032 45.8 17.76 46.472C17.488 47.144 17.088 47.736 16.56 48.248C16.048 48.76 15.424 49.192 14.688 49.544C13.968 49.896 13.152 50.136 12.24 50.264V53.816H21V56.288H0.408V53.816H9.168ZM15.144 44.288C15.144 43.76 15.04 43.272 14.832 42.824C14.64 42.36 14.352 41.96 13.968 41.624C13.6 41.288 13.136 41.032 12.576 40.856C12.032 40.664 11.408 40.568 10.704 40.568C10 40.568 9.368 40.664 8.808 40.856C8.264 41.032 7.8 41.288 7.416 41.624C7.048 41.96 6.76 42.36 6.552 42.824C6.36 43.272 6.264 43.76 6.264 44.288C6.264 44.816 6.36 45.304 6.552 45.752C6.76 46.2 7.048 46.592 7.416 46.928C7.8 47.248 8.264 47.504 8.808 47.696C9.368 47.872 10 47.96 10.704 47.96C11.408 47.96 12.032 47.872 12.576 47.696C13.136 47.504 13.6 47.248 13.968 46.928C14.352 46.592 14.64 46.2 14.832 45.752C15.04 45.304 15.144 44.816 15.144 44.288ZM25.0944 49.976V39.008H39.2064V41.528H28.0704V47.384H39.3984V49.976H25.0944ZM42.3744 53.696V56.168H21.7824V53.696H42.3744ZM58.7329 37.136H61.7089V59.384H58.7329V37.136ZM47.4289 51.776H49.7089C51.1649 51.776 52.5889 51.688 53.9809 51.512C55.3729 51.32 56.6689 51.088 57.8689 50.816V53.264C57.3249 53.408 56.7009 53.544 55.9969 53.672C55.2929 53.784 54.5489 53.888 53.7649 53.984C52.9969 54.064 52.2049 54.136 51.3889 54.2C50.5729 54.248 49.7809 54.272 49.0129 54.272H44.4289V45.104H51.4609V41.384H44.4049V38.864H54.4849V47.6H47.4289V51.776ZM80.6593 59.432V54.248H68.6113V51.8H83.6113V59.432H80.6593ZM83.6113 50.84H80.8753V45.632H79.1953V50.84H76.4593V37.376H79.1953V43.256H80.8753V37.136H83.6113V50.84ZM67.3153 37.256H73.6753V39.632H67.3153V37.256ZM65.9473 40.736H68.8513C69.6673 40.736 70.5153 40.736 71.3953 40.736C72.2753 40.736 73.3313 40.72 74.5633 40.688C74.4353 41.6 74.2113 42.472 73.8913 43.304C73.5713 44.136 73.1553 44.92 72.6433 45.656C73.1713 46.168 73.7393 46.624 74.3473 47.024C74.9553 47.408 75.6513 47.8 76.4353 48.2L74.4193 50.288C73.7313 49.872 73.0993 49.456 72.5233 49.04C71.9633 48.624 71.4513 48.168 70.9873 47.672C70.3313 48.344 69.6193 48.944 68.8513 49.472C68.0833 50 67.2673 50.472 66.4033 50.888L64.6033 48.872C66.5713 47.992 68.0673 47.064 69.0913 46.088C70.1153 45.112 70.7713 44.096 71.0593 43.04H65.9473V40.736ZM96.4898 50.768C97.7058 50.768 98.7778 50.88 99.7057 51.104C100.634 51.328 101.41 51.64 102.034 52.04C102.658 52.44 103.13 52.904 103.45 53.432C103.77 53.96 103.93 54.52 103.93 55.112C103.93 55.72 103.77 56.288 103.45 56.816C103.13 57.36 102.658 57.832 102.034 58.232C101.41 58.632 100.634 58.952 99.7057 59.192C98.7778 59.432 97.7058 59.552 96.4898 59.552C95.2738 59.552 94.2018 59.432 93.2738 59.192C92.3618 58.952 91.5938 58.632 90.9698 58.232C90.3458 57.832 89.8738 57.36 89.5538 56.816C89.2498 56.288 89.0978 55.72 89.0978 55.112C89.0978 54.52 89.2498 53.96 89.5538 53.432C89.8738 52.904 90.3458 52.44 90.9698 52.04C91.5938 51.64 92.3618 51.328 93.2738 51.104C94.2018 50.88 95.2738 50.768 96.4898 50.768ZM96.4898 53.072C95.6898 53.072 95.0098 53.136 94.4498 53.264C93.9058 53.376 93.4578 53.528 93.1058 53.72C92.7698 53.912 92.5218 54.136 92.3618 54.392C92.2178 54.632 92.1458 54.872 92.1458 55.112C92.1458 55.352 92.2178 55.6 92.3618 55.856C92.5218 56.096 92.7698 56.312 93.1058 56.504C93.4578 56.712 93.9058 56.88 94.4498 57.008C95.0098 57.136 95.6898 57.2 96.4898 57.2C97.2898 57.2 97.9618 57.136 98.5058 57.008C99.0658 56.88 99.5218 56.712 99.8738 56.504C100.226 56.312 100.474 56.096 100.618 55.856C100.778 55.6 100.858 55.352 100.858 55.112C100.858 54.872 100.778 54.632 100.618 54.392C100.474 54.136 100.226 53.912 99.8738 53.72C99.5218 53.528 99.0658 53.376 98.5058 53.264C97.9618 53.136 97.2898 53.072 96.4898 53.072ZM86.8898 48.992V37.784H89.8178V41.432H94.4018V37.784H97.2818V48.992H86.8898ZM94.4018 43.784H89.8178V46.664H94.4018V43.784ZM106.834 44.528H103.498V50.672H100.546V37.136H103.498V42.032H106.834V44.528ZM126.6 59.384H123.792V37.136H126.6V59.384ZM119.544 37.376H122.28V58.832H119.544V47.264H117.888C117.808 49.648 117.368 51.44 116.568 52.64C115.784 53.84 114.616 54.44 113.064 54.44C111.432 54.44 110.224 53.76 109.44 52.4C108.656 51.024 108.264 49.04 108.264 46.448C108.264 43.808 108.648 41.824 109.416 40.496C110.2 39.152 111.416 38.48 113.064 38.48C114.552 38.48 115.68 39 116.448 40.04C117.216 41.08 117.68 42.616 117.84 44.648H119.544V37.376ZM115.056 46.448C115.056 44.736 114.904 43.416 114.6 42.488C114.312 41.544 113.8 41.072 113.064 41.072C112.344 41.072 111.856 41.544 111.6 42.488C111.344 43.416 111.216 44.736 111.216 46.448C111.216 48.176 111.344 49.512 111.6 50.456C111.856 51.384 112.344 51.848 113.064 51.848C113.8 51.848 114.312 51.384 114.6 50.456C114.904 49.512 115.056 48.176 115.056 46.448ZM154.998 45.584H151.662V50.648H148.71V37.136H151.662V43.088H154.998V45.584ZM151.662 59.048H137.718V51.584H151.662V59.048ZM148.71 53.984H140.694V56.624H148.71V53.984ZM134.118 42.488V40.376H147.606V42.488H134.118ZM136.974 39.248V37.04H144.918V39.248H136.974ZM140.958 50.528C140.078 50.528 139.302 50.424 138.63 50.216C137.974 50.008 137.422 49.736 136.974 49.4C136.526 49.064 136.19 48.68 135.966 48.248C135.742 47.8 135.63 47.336 135.63 46.856C135.63 46.376 135.742 45.92 135.966 45.488C136.19 45.04 136.526 44.648 136.974 44.312C137.422 43.976 137.974 43.712 138.63 43.52C139.302 43.312 140.078 43.208 140.958 43.208C141.822 43.208 142.582 43.312 143.238 43.52C143.91 43.712 144.47 43.976 144.918 44.312C145.366 44.648 145.702 45.04 145.926 45.488C146.166 45.92 146.286 46.376 146.286 46.856C146.286 47.336 146.166 47.8 145.926 48.248C145.702 48.68 145.366 49.064 144.918 49.4C144.47 49.736 143.91 50.008 143.238 50.216C142.582 50.424 141.822 50.528 140.958 50.528ZM140.958 48.44C141.838 48.44 142.47 48.28 142.854 47.96C143.238 47.64 143.43 47.272 143.43 46.856C143.43 46.392 143.246 46.008 142.878 45.704C142.51 45.4 141.87 45.248 140.958 45.248C140.03 45.248 139.382 45.4 139.014 45.704C138.646 46.008 138.462 46.392 138.462 46.856C138.462 47.288 138.646 47.664 139.014 47.984C139.398 48.288 140.046 48.44 140.958 48.44ZM175.004 59.384H172.388V37.136H175.004V59.384ZM168.524 37.376H171.164V58.832H168.524V47.864H166.124C165.756 49.16 165.268 50.44 164.66 51.704C164.052 52.952 163.268 54.184 162.308 55.4L160.1 53.888C160.964 52.928 161.684 51.912 162.26 50.84C162.836 49.752 163.292 48.672 163.628 47.6C163.964 46.512 164.188 45.448 164.3 44.408C164.428 43.368 164.484 42.4 164.468 41.504C164.276 41.536 164.068 41.552 163.844 41.552C163.636 41.552 163.42 41.552 163.196 41.552H162.38V39.032H163.412C163.94 39.032 164.484 39.032 165.044 39.032C165.62 39.016 166.3 38.992 167.084 38.96V40.376C167.084 41.224 167.052 42.072 166.988 42.92C166.924 43.752 166.82 44.6 166.676 45.464H168.524V37.376ZM157.58 52.88L155.444 51.368C156.324 50.552 157.028 49.728 157.556 48.896C158.1 48.048 158.516 47.208 158.804 46.376C159.108 45.544 159.308 44.72 159.404 43.904C159.5 43.088 159.54 42.288 159.524 41.504C159.3 41.536 159.06 41.552 158.804 41.552C158.548 41.552 158.3 41.552 158.06 41.552H156.836V39.032H158.156C158.716 39.032 159.292 39.032 159.884 39.032C160.492 39.016 161.204 38.992 162.02 38.96V40.28C162.02 41.48 161.956 42.64 161.828 43.76C161.716 44.88 161.492 45.968 161.156 47.024C160.836 48.064 160.388 49.072 159.812 50.048C159.236 51.024 158.492 51.968 157.58 52.88ZM197.795 45.08H194.459V49.136H191.507V37.136H194.459V42.584H197.795V45.08ZM194.915 59.144H180.395V53.432H191.531V52.4H180.395V50.072H194.459V55.616H183.347V56.816H194.915V59.144ZM176.915 42.08V40.064H190.403V42.08H176.915ZM179.771 39.128V37.04H187.715V39.128H179.771ZM183.755 49.256C182.875 49.256 182.099 49.16 181.427 48.968C180.771 48.776 180.219 48.528 179.771 48.224C179.323 47.904 178.987 47.544 178.763 47.144C178.539 46.744 178.427 46.328 178.427 45.896C178.427 45.464 178.539 45.048 178.763 44.648C178.987 44.248 179.323 43.896 179.771 43.592C180.219 43.272 180.771 43.024 181.427 42.848C182.099 42.656 182.875 42.56 183.755 42.56C184.619 42.56 185.379 42.656 186.035 42.848C186.707 43.024 187.267 43.272 187.715 43.592C188.163 43.896 188.499 44.248 188.723 44.648C188.963 45.048 189.083 45.464 189.083 45.896C189.083 46.328 188.963 46.744 188.723 47.144C188.499 47.544 188.163 47.904 187.715 48.224C187.267 48.528 186.707 48.776 186.035 48.968C185.379 49.16 184.619 49.256 183.755 49.256ZM183.755 47.264C184.635 47.264 185.267 47.128 185.651 46.856C186.035 46.568 186.227 46.256 186.227 45.92C186.227 45.536 186.043 45.208 185.675 44.936C185.307 44.648 184.667 44.504 183.755 44.504C182.827 44.504 182.179 44.648 181.811 44.936C181.443 45.208 181.259 45.536 181.259 45.92C181.259 46.272 181.443 46.584 181.811 46.856C182.195 47.128 182.843 47.264 183.755 47.264ZM206.824 49.76V38.936H221.2V41.48H209.824V47.24H221.392V49.76H215.656V53.792H224.416V56.264H203.584V53.792H212.632V49.76H206.824ZM236.599 46.688V44.12H240.655V37.136H243.631V59.384H240.655V46.688H236.599ZM226.447 54.776L224.431 52.976C225.439 52.224 226.351 51.392 227.167 50.48C227.983 49.568 228.663 48.528 229.207 47.36C229.767 46.192 230.175 44.88 230.431 43.424C230.687 41.968 230.759 40.312 230.647 38.456H233.719C233.767 40.616 233.599 42.592 233.215 44.384C233.839 46.08 234.647 47.576 235.639 48.872C236.647 50.168 237.903 51.328 239.407 52.352L237.535 54.44C235.167 52.776 233.319 50.664 231.991 48.104C231.351 49.48 230.567 50.72 229.639 51.824C228.711 52.912 227.647 53.896 226.447 54.776ZM247.701 43.952C247.701 43.168 247.845 42.44 248.133 41.768C248.437 41.08 248.845 40.496 249.357 40.016C249.885 39.52 250.501 39.136 251.205 38.864C251.925 38.576 252.693 38.432 253.509 38.432C254.325 38.432 255.085 38.576 255.789 38.864C256.493 39.136 257.101 39.52 257.613 40.016C258.141 40.496 258.549 41.08 258.837 41.768C259.141 42.44 259.293 43.168 259.293 43.952C259.293 44.608 259.189 45.224 258.981 45.8C258.773 46.376 258.477 46.896 258.093 47.36C257.725 47.808 257.285 48.192 256.773 48.512C256.261 48.832 255.693 49.064 255.069 49.208V52.328C256.029 52.28 256.973 52.216 257.901 52.136C258.845 52.056 259.749 51.96 260.613 51.848V54.272C259.781 54.384 258.893 54.488 257.949 54.584C257.005 54.664 256.037 54.736 255.045 54.8C254.069 54.848 253.093 54.888 252.117 54.92C251.157 54.952 250.237 54.968 249.357 54.968H246.309V52.472H249.333C249.765 52.472 250.213 52.472 250.677 52.472C251.141 52.472 251.613 52.464 252.093 52.448V49.256C251.453 49.112 250.861 48.888 250.317 48.584C249.789 48.264 249.325 47.872 248.925 47.408C248.541 46.944 248.237 46.424 248.013 45.848C247.805 45.256 247.701 44.624 247.701 43.952ZM250.677 43.952C250.677 44.912 250.933 45.648 251.445 46.16C251.973 46.672 252.661 46.928 253.509 46.928C254.373 46.928 255.069 46.672 255.597 46.16C256.125 45.648 256.389 44.912 256.389 43.952C256.389 42.976 256.125 42.224 255.597 41.696C255.069 41.152 254.373 40.88 253.509 40.88C252.677 40.88 251.997 41.152 251.469 41.696C250.941 42.224 250.677 42.976 250.677 43.952ZM267.405 48.128H264.165V59.384H261.309V37.136H264.165V45.632H267.405V48.128ZM9.144 82.672V81.184H0.192V79.048H21.216V81.184H12.144V82.672H18.048V88.048H6.288V89.272H18.624V91.384H3.312V86.08H15.096V84.88H3.312V82.672H9.144ZM6.096 68.92H14.544V71.08H6.096V68.92ZM13.776 75.4C14.688 75.624 15.632 75.832 16.608 76.024C17.6 76.2 18.68 76.36 19.848 76.504L18.456 78.52C17.112 78.328 15.824 78.088 14.592 77.8C13.36 77.496 12.144 77.12 10.944 76.672C9.68 77.152 8.36 77.56 6.984 77.896C5.608 78.216 4.28 78.424 3 78.52L1.8 76.528C3.096 76.416 4.336 76.248 5.52 76.024C6.704 75.8 7.768 75.56 8.712 75.304C9.656 75.032 10.448 74.776 11.088 74.536C11.744 74.28 12.2 74.064 12.456 73.888C11.592 73.92 10.736 73.944 9.888 73.96C9.04 73.96 8.184 73.968 7.32 73.984H3.432V71.872H7.344C8.88 71.872 10.408 71.872 11.928 71.872C13.448 71.872 14.984 71.856 16.536 71.824C17.08 71.824 17.256 72.12 17.064 72.712C16.776 73.176 16.344 73.64 15.768 74.104C15.208 74.552 14.544 74.984 13.776 75.4ZM22.2624 72.856V70.36H35.0784V72.856H22.2624ZM24.3264 79.528L24.1584 73.576H27.0624L27.2064 79.528H27.9024C28.2704 79.528 28.6384 79.528 29.0064 79.528C29.3744 79.512 29.7504 79.496 30.1344 79.48L30.2304 73.576H33.1104L32.9904 79.24C33.4384 79.176 33.8864 79.112 34.3344 79.048C34.7984 78.968 35.2624 78.872 35.7264 78.76V81.112C34.5904 81.432 33.3344 81.648 31.9584 81.76C30.5984 81.872 29.2624 81.928 27.9504 81.928H21.8064V79.528H24.3264ZM42.6384 77.512H39.3024V85.648H36.3504V69.136H39.3024V74.968H42.6384V77.512ZM39.7584 90.952H25.6464V84.232H28.6464V88.432H39.7584V90.952ZM64.2289 79.6H60.7009V91.384H57.7249V69.136H60.7009V77.056H64.2289V79.6ZM44.5249 86.728L42.3649 85C43.3729 84.248 44.2849 83.416 45.1009 82.504C45.9329 81.592 46.6289 80.552 47.1889 79.384C47.7489 78.216 48.1569 76.904 48.4129 75.448C48.6689 73.976 48.7409 72.312 48.6289 70.456H51.7009C51.7329 71.528 51.7009 72.544 51.6049 73.504C51.5249 74.464 51.3969 75.384 51.2209 76.264C51.8449 77.992 52.6609 79.504 53.6689 80.8C54.6769 82.096 55.9329 83.256 57.4369 84.28L55.4449 86.296C53.1249 84.664 51.3089 82.6 49.9969 80.104C49.3889 81.464 48.6209 82.688 47.6929 83.776C46.7809 84.864 45.7249 85.848 44.5249 86.728ZM67.6033 69.664H82.0033V74.872H70.5313V75.976H82.5073V78.064H67.6033V72.928H79.0753V71.848H67.6033V69.664ZM85.4113 79.216V81.376H64.3873V79.216H85.4113ZM67.5073 91.384V86.08H79.2913V84.88H67.5073V82.672H82.2433V88.048H70.4833V89.272H82.8193V91.384H67.5073ZM112.201 77.464H108.865V82.264H105.913V69.136H108.865V74.968H112.201V77.464ZM105.169 87.52C106.081 87.84 107.017 88.128 107.977 88.384C108.953 88.64 110.057 88.912 111.289 89.2L109.657 91.432C108.297 91.096 107.025 90.728 105.841 90.328C104.673 89.928 103.513 89.472 102.361 88.96C101.193 89.488 99.9529 89.96 98.6409 90.376C97.3449 90.808 96.0409 91.176 94.7289 91.48L93.1929 89.248C94.7289 88.928 96.1289 88.584 97.3929 88.216C98.6569 87.864 99.7609 87.512 100.705 87.16C101.649 86.808 102.425 86.48 103.033 86.176C103.641 85.872 104.057 85.624 104.281 85.432C103.369 85.48 102.505 85.512 101.689 85.528C100.889 85.528 100.041 85.528 99.1449 85.528H95.3049V83.2H102.433C103.393 83.2 104.337 83.2 105.265 83.2C106.209 83.2 107.209 83.184 108.265 83.152C108.489 83.152 108.649 83.232 108.745 83.392C108.841 83.536 108.841 83.752 108.745 84.04C108.521 84.632 108.097 85.224 107.473 85.816C106.849 86.392 106.081 86.96 105.169 87.52ZM94.6329 69.04H101.449V71.32H94.6329V69.04ZM92.7129 72.616H96.8889C97.9449 72.616 98.9769 72.616 99.9849 72.616C101.009 72.6 102.041 72.576 103.081 72.544C103.017 73.472 102.769 74.368 102.337 75.232C101.921 76.08 101.353 76.888 100.633 77.656C101.977 78.568 103.529 79.336 105.289 79.96L103.801 82C102.009 81.28 100.377 80.352 98.9049 79.216C98.0569 79.888 97.1289 80.496 96.1209 81.04C95.1129 81.584 94.0729 82.04 93.0009 82.408L91.4649 80.392C92.7129 80.008 93.8009 79.568 94.7289 79.072C95.6729 78.576 96.4649 78.08 97.1049 77.584C97.7609 77.072 98.2729 76.576 98.6409 76.096C99.0249 75.6 99.2889 75.168 99.4329 74.8C98.7609 74.832 98.1289 74.856 97.5369 74.872C96.9609 74.872 96.3449 74.872 95.6889 74.872H92.7129V72.616ZM128.967 83.752H125.919C126.383 81.992 126.727 80.24 126.951 78.496C127.191 76.736 127.327 75.096 127.359 73.576H115.767V71.032H130.383C130.367 72.072 130.319 73.144 130.239 74.248C130.159 75.352 130.055 76.456 129.927 77.56C129.815 78.664 129.671 79.744 129.495 80.8C129.335 81.84 129.159 82.824 128.967 83.752ZM133.335 88.168H112.743V85.696H119.871V78.664H122.871V85.696H133.335V88.168ZM152.67 81.544H149.694V69.136H152.67V81.544ZM150.318 84.688C150.686 85.68 151.238 86.512 151.974 87.184C152.726 87.856 153.71 88.496 154.926 89.104L153.27 91.312C152.358 90.864 151.55 90.328 150.846 89.704C150.158 89.096 149.566 88.432 149.07 87.712C148.622 88.432 148.094 89.088 147.486 89.68C146.894 90.272 146.222 90.816 145.47 91.312C144.11 90.224 142.998 88.96 142.134 87.52C141.622 88.32 141.006 89.032 140.286 89.656C139.566 90.28 138.75 90.824 137.838 91.288L135.966 89.296C136.782 88.912 137.486 88.488 138.078 88.024C138.686 87.576 139.182 87.08 139.566 86.536C139.95 85.976 140.23 85.36 140.406 84.688C140.582 84 140.646 83.224 140.598 82.36H143.622C143.606 82.728 143.582 83.088 143.55 83.44C143.518 83.792 143.462 84.136 143.382 84.472C143.782 85.464 144.158 86.224 144.51 86.752C144.862 87.264 145.222 87.688 145.59 88.024C145.878 87.752 146.158 87.448 146.43 87.112C146.702 86.76 146.934 86.36 147.126 85.912C147.318 85.448 147.462 84.92 147.558 84.328C147.654 83.736 147.67 83.056 147.606 82.288H150.606C150.59 83.12 150.494 83.92 150.318 84.688ZM140.91 69.592C141.742 69.592 142.51 69.728 143.214 70C143.934 70.272 144.55 70.656 145.062 71.152C145.59 71.648 145.998 72.24 146.286 72.928C146.59 73.616 146.742 74.368 146.742 75.184C146.742 76 146.59 76.752 146.286 77.44C145.998 78.128 145.59 78.72 145.062 79.216C144.55 79.696 143.934 80.072 143.214 80.344C142.51 80.616 141.742 80.752 140.91 80.752C140.062 80.752 139.286 80.616 138.582 80.344C137.878 80.072 137.27 79.696 136.758 79.216C136.246 78.72 135.846 78.128 135.558 77.44C135.27 76.752 135.126 76 135.126 75.184C135.126 74.368 135.27 73.616 135.558 72.928C135.846 72.24 136.246 71.648 136.758 71.152C137.27 70.656 137.878 70.272 138.582 70C139.286 69.728 140.062 69.592 140.91 69.592ZM140.886 72.016C140.022 72.016 139.334 72.296 138.822 72.856C138.326 73.416 138.078 74.192 138.078 75.184C138.078 76.192 138.326 76.976 138.822 77.536C139.334 78.08 140.022 78.352 140.886 78.352C141.75 78.352 142.438 78.08 142.95 77.536C143.462 76.976 143.718 76.192 143.718 75.184C143.718 74.192 143.462 73.416 142.95 72.856C142.438 72.296 141.75 72.016 140.886 72.016ZM167.804 76.768H171.092V69.136H174.068V91.384H171.092V79.408H167.876C167.732 81.712 167.14 83.472 166.1 84.688C165.06 85.904 163.716 86.512 162.068 86.512C161.188 86.512 160.388 86.336 159.668 85.984C158.964 85.632 158.356 85.112 157.844 84.424C157.332 83.736 156.932 82.896 156.644 81.904C156.372 80.896 156.236 79.744 156.236 78.448C156.236 77.152 156.372 76.008 156.644 75.016C156.932 74.008 157.332 73.16 157.844 72.472C158.356 71.784 158.964 71.264 159.668 70.912C160.388 70.56 161.188 70.384 162.068 70.384C163.62 70.384 164.908 70.928 165.932 72.016C166.956 73.104 167.58 74.688 167.804 76.768ZM164.876 78.448C164.876 76.72 164.628 75.368 164.132 74.392C163.652 73.416 162.964 72.928 162.068 72.928C161.172 72.928 160.476 73.416 159.98 74.392C159.5 75.368 159.26 76.72 159.26 78.448C159.26 80.176 159.5 81.528 159.98 82.504C160.476 83.48 161.172 83.968 162.068 83.968C162.964 83.968 163.652 83.48 164.132 82.504C164.628 81.528 164.876 80.176 164.876 78.448ZM197.555 85.816V88.288H176.963V85.816H181.547V82.216H184.523V85.816H190.115V82.216H193.091V85.816H197.555ZM194.723 75.952C194.723 76.784 194.547 77.552 194.195 78.256C193.843 78.96 193.339 79.568 192.683 80.08C192.043 80.592 191.259 80.992 190.331 81.28C189.419 81.568 188.395 81.712 187.259 81.712C186.123 81.712 185.091 81.568 184.163 81.28C183.251 80.992 182.467 80.592 181.811 80.08C181.171 79.568 180.675 78.96 180.323 78.256C179.971 77.552 179.795 76.784 179.795 75.952C179.795 75.12 179.971 74.352 180.323 73.648C180.675 72.928 181.171 72.304 181.811 71.776C182.467 71.248 183.251 70.84 184.163 70.552C185.091 70.248 186.123 70.096 187.259 70.096C188.395 70.096 189.419 70.248 190.331 70.552C191.259 70.84 192.043 71.248 192.683 71.776C193.339 72.304 193.843 72.928 194.195 73.648C194.547 74.352 194.723 75.12 194.723 75.952ZM191.699 75.928C191.699 75.448 191.595 75 191.387 74.584C191.195 74.168 190.907 73.816 190.523 73.528C190.155 73.224 189.691 72.984 189.131 72.808C188.587 72.632 187.963 72.544 187.259 72.544C186.555 72.544 185.923 72.632 185.363 72.808C184.819 72.984 184.355 73.224 183.971 73.528C183.603 73.816 183.315 74.168 183.107 74.584C182.915 75 182.819 75.448 182.819 75.928C182.819 76.408 182.915 76.856 183.107 77.272C183.315 77.688 183.603 78.048 183.971 78.352C184.355 78.64 184.819 78.872 185.363 79.048C185.923 79.224 186.555 79.312 187.259 79.312C187.963 79.312 188.587 79.224 189.131 79.048C189.691 78.872 190.155 78.64 190.523 78.352C190.907 78.048 191.195 77.688 191.387 77.272C191.595 76.856 191.699 76.408 191.699 75.928Z" fill="white"/>
<path d="M9.5 2C11.6954 3.37215 10.0566 9.70127 8.78316 11.5374C7.79624 12.9604 6.38229 13.9796 5.01952 15.0017C4.68482 15.2527 8.75967 17.4686 9.16807 17.6961C10.963 18.6958 13.5959 20.0485 13.8726 22.4006C13.9502 23.0603 15.1722 19.2506 15.4123 18.637C16.3592 16.2171 17.8993 14.6275 19.6464 12.7777C20.4938 11.8804 19.3611 12.3928 18.791 12.3928C17.697 12.3928 15.9299 12.2337 15.0274 11.5374C13.3504 10.2437 11.7077 7.40068 10.7933 5.46426C10.3789 4.58672 9.63853 2.93888 9.63853 2" stroke="#FFDD66" stroke-width="3" stroke-linecap="round"/>
<path d="M8.44751 15.0381C9.23116 13.5288 10.7091 12.654 11.7527 11.3495C12.182 10.8128 12.4163 10.6301 12.9029 10.9397C14.0119 11.6454 12.392 14.2888 12.374 15.2761C12.3626 15.9045 11.9005 16.8587 12.1427 17.4641C12.1666 17.5239 12.6673 16.7104 12.731 16.6113C12.9613 16.253 13.209 15.9141 13.4449 15.5603C13.9531 14.7981 14.6144 14.0159 15.0182 13.2533C15.0708 13.1538 15.3928 12.5272 15.461 12.4931C15.4635 12.4919 15.4615 12.7858 15.461 12.7906C15.4276 13.1587 15.3289 13.5501 15.1504 13.8747C14.9893 14.1675 14.1093 15.2561 14.1588 15.1571" stroke="#FFDD66" stroke-width="3" stroke-linecap="round"/>
</svg>
