<svg width="792" height="352" viewBox="0 0 792 352" fill="none" xmlns="http://www.w3.org/2000/svg">
<g clip-path="url(#clip0_632_1225)">
<circle cx="54" cy="176" r="88" transform="rotate(-180 54 176)" fill="url(#paint0_linear_632_1225)"/>
<path d="M0 0H792V352H0V0Z" fill="url(#paint1_linear_632_1225)"/>
<path d="M81.5 24L83.0217 48.8499L93.9372 26.4739L85.8334 50.0145L104.481 33.519L87.9855 52.1666L111.526 44.0628L89.1501 54.9783L114 56.5L89.1501 58.0217L111.526 68.9372L87.9855 60.8334L104.481 79.481L85.8334 62.9855L93.9372 86.5261L83.0217 64.1501L81.5 89L79.9783 64.1501L69.0628 86.5261L77.1666 62.9855L58.519 79.481L75.0145 60.8334L51.4739 68.9372L73.8499 58.0217L49 56.5L73.8499 54.9783L51.4739 44.0628L75.0145 52.1666L58.519 33.519L77.1666 50.0145L69.0628 26.4739L79.9783 48.8499L81.5 24Z" fill="#FFF8F4"/>
<path d="M681.5 56L683.022 80.8499L693.937 58.4739L685.833 82.0145L704.481 65.519L687.985 84.1666L711.526 76.0628L689.15 86.9783L714 88.5L689.15 90.0217L711.526 100.937L687.985 92.8334L704.481 111.481L685.833 94.9855L693.937 118.526L683.022 96.1501L681.5 121L679.978 96.1501L669.063 118.526L677.167 94.9855L658.519 111.481L675.015 92.8334L651.474 100.937L673.85 90.0217L649 88.5L673.85 86.9783L651.474 76.0628L675.015 84.1666L658.519 65.519L677.167 82.0145L669.063 58.4739L679.978 80.8499L681.5 56Z" fill="#FFF8F4"/>
<circle cx="738.451" cy="223.451" r="88" transform="rotate(135 738.451 223.451)" fill="url(#paint2_linear_632_1225)"/>
<path opacity="0.2" d="M614 214L615.405 236.938L625.481 216.284L618 238.013L635.213 222.787L619.987 240L641.716 232.519L621.062 242.595L644 244L621.062 245.405L641.716 255.481L619.987 248L635.213 265.213L618 249.987L625.481 271.716L615.405 251.062L614 274L612.595 251.062L602.519 271.716L610 249.987L592.787 265.213L608.013 248L586.284 255.481L606.938 245.405L584 244L606.938 242.595L586.284 232.519L608.013 240L592.787 222.787L610 238.013L602.519 216.284L612.595 236.938L614 214Z" fill="white"/>
</g>
<defs>
<linearGradient id="paint0_linear_632_1225" x1="54" y1="88" x2="54" y2="264" gradientUnits="userSpaceOnUse">
<stop stop-color="#FF934F"/>
<stop offset="1" stop-color="#FF6300" stop-opacity="0"/>
</linearGradient>
<linearGradient id="paint1_linear_632_1225" x1="450.5" y1="17.5" x2="459.069" y2="349.975" gradientUnits="userSpaceOnUse">
<stop offset="0.328125" stop-color="white" stop-opacity="0.71"/>
<stop offset="1" stop-color="#FF6300"/>
</linearGradient>
<linearGradient id="paint2_linear_632_1225" x1="738.451" y1="135.451" x2="738.451" y2="311.451" gradientUnits="userSpaceOnUse">
<stop stop-color="#FF934F"/>
<stop offset="1" stop-color="#FF6300" stop-opacity="0"/>
</linearGradient>
<clipPath id="clip0_632_1225">
<path d="M0 7.99999C0 3.58171 3.58172 0 8 0H784C788.418 0 792 3.58172 792 8V352H0V7.99999Z" fill="white"/>
</clipPath>
</defs>
</svg>
