<svg width="262" height="25" viewBox="0 0 262 25" fill="none" xmlns="http://www.w3.org/2000/svg">
<path d="M21.592 1.344V23.232C21.592 23.4453 21.5173 23.6267 21.368 23.776C21.2187 23.9253 21.0373 24 20.824 24H16.024C15.7893 24 15.5973 23.9253 15.448 23.776C15.32 23.6267 15.256 23.4453 15.256 23.232V16.384C15.256 16.1707 15.1813 15.9893 15.032 15.84C14.8827 15.6907 14.7013 15.616 14.488 15.616H7.896C7.66133 15.616 7.46933 15.6907 7.32 15.84C7.192 15.9893 7.128 16.1707 7.128 16.384V23.232C7.128 23.4453 7.05333 23.6267 6.904 23.776C6.75467 23.9253 6.57333 24 6.36 24H1.592C1.35733 24 1.16533 23.9253 1.016 23.776C0.888 23.6267 0.824 23.4453 0.824 23.232V1.344C0.824 1.13067 0.888 0.949332 1.016 0.799999C1.16533 0.650665 1.35733 0.575998 1.592 0.575998H6.36C6.57333 0.575998 6.75467 0.650665 6.904 0.799999C7.05333 0.949332 7.128 1.13067 7.128 1.344V8.928C7.128 9.14133 7.192 9.32267 7.32 9.472C7.46933 9.62133 7.66133 9.696 7.896 9.696H14.488C14.7013 9.696 14.8827 9.62133 15.032 9.472C15.1813 9.32267 15.256 9.14133 15.256 8.928V1.344C15.256 1.13067 15.32 0.949332 15.448 0.799999C15.5973 0.650665 15.7893 0.575998 16.024 0.575998H20.824C21.0373 0.575998 21.2187 0.650665 21.368 0.799999C21.5173 0.949332 21.592 1.13067 21.592 1.344ZM25.2978 12.288C25.2978 10.624 25.6178 9.056 26.2578 7.584C26.8978 6.112 27.7618 4.832 28.8498 3.744C29.9378 2.63467 31.2178 1.76 32.6898 1.12C34.1618 0.479998 35.7298 0.159998 37.3938 0.159998C39.0578 0.159998 40.6258 0.479998 42.0978 1.12C43.5698 1.76 44.8498 2.63467 45.9378 3.744C47.0471 4.832 47.9218 6.112 48.5618 7.584C49.2018 9.056 49.5218 10.624 49.5218 12.288C49.5218 13.952 49.2018 15.52 48.5618 16.992C47.9218 18.464 47.0471 19.7547 45.9378 20.864C44.8498 21.952 43.5698 22.816 42.0978 23.456C40.6258 24.096 39.0578 24.416 37.3938 24.416C35.7298 24.416 34.1618 24.096 32.6898 23.456C31.2178 22.816 29.9378 21.952 28.8498 20.864C27.7618 19.7547 26.8978 18.464 26.2578 16.992C25.6178 15.52 25.2978 13.952 25.2978 12.288ZM31.6338 12.288C31.6338 13.0987 31.7831 13.8667 32.0818 14.592C32.3804 15.3173 32.7858 15.9573 33.2978 16.512C33.8311 17.0667 34.4498 17.5147 35.1538 17.856C35.8578 18.176 36.6044 18.336 37.3938 18.336C38.1831 18.336 38.9298 18.176 39.6338 17.856C40.3378 17.5147 40.9564 17.0667 41.4897 16.512C42.0231 15.9573 42.4391 15.3173 42.7378 14.592C43.0364 13.8667 43.1858 13.0987 43.1858 12.288C43.1858 11.4987 43.0364 10.7413 42.7378 10.016C42.4391 9.26933 42.0231 8.62933 41.4897 8.096C40.9564 7.54133 40.3378 7.104 39.6338 6.784C38.9298 6.44267 38.1831 6.272 37.3938 6.272C36.6044 6.272 35.8578 6.44267 35.1538 6.784C34.4498 7.104 33.8311 7.54133 33.2978 8.096C32.7858 8.62933 32.3804 9.26933 32.0818 10.016C31.7831 10.7413 31.6338 11.4987 31.6338 12.288ZM50.0305 1.28C49.9665 1.088 49.9772 0.927999 50.0625 0.799999C50.1692 0.650665 50.3398 0.575998 50.5745 0.575998H55.7905C56.0038 0.575998 56.2065 0.650665 56.3985 0.799999C56.5905 0.927999 56.7185 1.088 56.7825 1.28L60.5265 11.936C60.5905 12.1493 60.6652 12.256 60.7505 12.256C60.8572 12.256 60.9425 12.1493 61.0065 11.936L64.6225 1.312C64.6865 1.09867 64.8145 0.927999 65.0065 0.799999C65.1985 0.650665 65.4118 0.575998 65.6465 0.575998H69.9025C70.1372 0.575998 70.3505 0.650665 70.5425 0.799999C70.7345 0.927999 70.8625 1.09867 70.9265 1.312L74.5425 12C74.6065 12.2133 74.6812 12.32 74.7665 12.32C74.8732 12.32 74.9692 12.2133 75.0545 12L78.8305 1.28C78.9158 1.088 79.0545 0.927999 79.2465 0.799999C79.4385 0.650665 79.6518 0.575998 79.8865 0.575998H85.0705C85.3052 0.575998 85.4652 0.650665 85.5505 0.799999C85.6572 0.927999 85.6785 1.088 85.6145 1.28L77.8385 23.264C77.7532 23.4773 77.6145 23.6587 77.4225 23.808C77.2305 23.936 77.0172 24 76.7825 24H72.6545C72.4198 24 72.2065 23.936 72.0145 23.808C71.8225 23.6587 71.6945 23.4773 71.6305 23.264L68.0145 12.608C67.9505 12.3947 67.8652 12.288 67.7585 12.288C67.6732 12.288 67.5985 12.3947 67.5345 12.608L63.9185 23.264C63.8545 23.4773 63.7265 23.6587 63.5345 23.808C63.3425 23.936 63.1292 24 62.8945 24H58.7665C58.5318 24 58.3292 23.9787 58.1585 23.936C58.0092 23.872 57.9238 23.808 57.9025 23.744L57.8385 23.52L50.0305 1.28ZM115.931 6.464H111.451C111.238 6.464 111.057 6.53867 110.907 6.688C110.758 6.83733 110.683 7.01867 110.683 7.232V23.232C110.683 23.4453 110.609 23.6267 110.459 23.776C110.331 23.9253 110.15 24 109.915 24H105.115C104.902 24 104.721 23.9253 104.571 23.776C104.422 23.6267 104.347 23.4453 104.347 23.232V7.232C104.347 7.01867 104.273 6.83733 104.123 6.688C103.995 6.53867 103.814 6.464 103.579 6.464H99.0353C98.8219 6.464 98.6406 6.38933 98.4913 6.24C98.3419 6.09067 98.2673 5.90933 98.2673 5.696V1.344C98.2673 1.13067 98.3419 0.949332 98.4913 0.799999C98.6406 0.650665 98.8219 0.575998 99.0353 0.575998H115.931C116.166 0.575998 116.347 0.650665 116.475 0.799999C116.625 0.949332 116.699 1.13067 116.699 1.344V5.696C116.699 5.90933 116.625 6.09067 116.475 6.24C116.347 6.38933 116.166 6.464 115.931 6.464ZM117.642 12.288C117.642 10.624 117.962 9.056 118.602 7.584C119.242 6.112 120.106 4.832 121.194 3.744C122.282 2.63467 123.562 1.76 125.034 1.12C126.506 0.479998 128.074 0.159998 129.738 0.159998C131.402 0.159998 132.97 0.479998 134.442 1.12C135.914 1.76 137.194 2.63467 138.282 3.744C139.391 4.832 140.266 6.112 140.906 7.584C141.546 9.056 141.866 10.624 141.866 12.288C141.866 13.952 141.546 15.52 140.906 16.992C140.266 18.464 139.391 19.7547 138.282 20.864C137.194 21.952 135.914 22.816 134.442 23.456C132.97 24.096 131.402 24.416 129.738 24.416C128.074 24.416 126.506 24.096 125.034 23.456C123.562 22.816 122.282 21.952 121.194 20.864C120.106 19.7547 119.242 18.464 118.602 16.992C117.962 15.52 117.642 13.952 117.642 12.288ZM123.978 12.288C123.978 13.0987 124.127 13.8667 124.426 14.592C124.724 15.3173 125.13 15.9573 125.642 16.512C126.175 17.0667 126.794 17.5147 127.498 17.856C128.202 18.176 128.948 18.336 129.738 18.336C130.527 18.336 131.274 18.176 131.978 17.856C132.682 17.5147 133.3 17.0667 133.833 16.512C134.367 15.9573 134.783 15.3173 135.082 14.592C135.38 13.8667 135.53 13.0987 135.53 12.288C135.53 11.4987 135.38 10.7413 135.082 10.016C134.783 9.26933 134.367 8.62933 133.833 8.096C133.3 7.54133 132.682 7.104 131.978 6.784C131.274 6.44267 130.527 6.272 129.738 6.272C128.948 6.272 128.202 6.44267 127.498 6.784C126.794 7.104 126.175 7.54133 125.642 8.096C125.13 8.62933 124.724 9.26933 124.426 10.016C124.127 10.7413 123.978 11.4987 123.978 12.288ZM153.575 23.296L163.015 1.312C163.1 1.12 163.239 0.959998 163.431 0.831999C163.644 0.682666 163.868 0.608 164.103 0.608H168.583C168.796 0.608 168.999 0.682666 169.191 0.831999C169.404 0.959998 169.554 1.12 169.639 1.312L179.079 23.296C179.164 23.488 179.164 23.6587 179.079 23.808C178.994 23.936 178.844 24 178.631 24H172.775C172.54 24 172.316 23.936 172.103 23.808C171.911 23.6587 171.762 23.488 171.655 23.296L170.791 21.376C170.684 21.184 170.524 21.024 170.311 20.896C170.119 20.7467 169.916 20.672 169.703 20.672H162.951C162.716 20.672 162.492 20.7467 162.279 20.896C162.087 21.024 161.948 21.184 161.863 21.376L160.967 23.296C160.882 23.488 160.732 23.6587 160.519 23.808C160.327 23.936 160.124 24 159.911 24H154.055C153.82 24 153.66 23.936 153.575 23.808C153.49 23.6587 153.49 23.488 153.575 23.296ZM164.903 15.232H167.751C167.964 15.232 168.114 15.168 168.199 15.04C168.306 14.8907 168.306 14.72 168.199 14.528C167.986 13.9947 167.73 13.376 167.431 12.672C167.132 11.9467 166.855 11.2747 166.599 10.656C166.514 10.464 166.418 10.368 166.311 10.368C166.204 10.368 166.108 10.464 166.023 10.656L164.423 14.528C164.338 14.72 164.338 14.8907 164.423 15.04C164.508 15.168 164.668 15.232 164.903 15.232ZM191.116 17.696H188.332C188.119 17.696 187.937 17.7707 187.788 17.92C187.639 18.0693 187.564 18.2507 187.564 18.464V23.232C187.564 23.4453 187.489 23.6267 187.34 23.776C187.191 23.9253 187.009 24 186.796 24H181.964C181.751 24 181.569 23.9253 181.42 23.776C181.271 23.6267 181.196 23.4453 181.196 23.232V1.344C181.196 1.13067 181.271 0.949332 181.42 0.799999C181.569 0.650665 181.751 0.575998 181.964 0.575998H191.756C192.951 0.575998 194.071 0.799999 195.116 1.248C196.183 1.696 197.1 2.31466 197.868 3.104C198.657 3.89333 199.276 4.81067 199.724 5.856C200.193 6.90133 200.428 8.02133 200.428 9.216C200.428 10.4107 200.236 11.5307 199.852 12.576C199.468 13.6 198.881 14.496 198.092 15.264C197.324 16.0107 196.353 16.608 195.18 17.056C194.028 17.4827 192.673 17.696 191.116 17.696ZM191.34 6.464H188.332C188.119 6.464 187.937 6.53867 187.788 6.688C187.639 6.83733 187.564 7.01867 187.564 7.232V11.008C187.564 11.2213 187.639 11.4027 187.788 11.552C187.937 11.7013 188.119 11.776 188.332 11.776H191.756C192.567 11.776 193.153 11.52 193.516 11.008C193.9 10.4747 194.092 9.87733 194.092 9.216C194.092 8.87467 194.028 8.544 193.9 8.224C193.793 7.88267 193.623 7.584 193.388 7.328C193.153 7.072 192.865 6.86933 192.524 6.72C192.183 6.54933 191.788 6.464 191.34 6.464ZM212.804 17.696H210.02C209.806 17.696 209.625 17.7707 209.476 17.92C209.326 18.0693 209.252 18.2507 209.252 18.464V23.232C209.252 23.4453 209.177 23.6267 209.028 23.776C208.878 23.9253 208.697 24 208.484 24H203.652C203.438 24 203.257 23.9253 203.108 23.776C202.958 23.6267 202.884 23.4453 202.884 23.232V1.344C202.884 1.13067 202.958 0.949332 203.108 0.799999C203.257 0.650665 203.438 0.575998 203.652 0.575998H213.444C214.638 0.575998 215.758 0.799999 216.804 1.248C217.87 1.696 218.788 2.31466 219.556 3.104C220.345 3.89333 220.964 4.81067 221.412 5.856C221.881 6.90133 222.116 8.02133 222.116 9.216C222.116 10.4107 221.924 11.5307 221.54 12.576C221.156 13.6 220.569 14.496 219.78 15.264C219.012 16.0107 218.041 16.608 216.868 17.056C215.716 17.4827 214.361 17.696 212.804 17.696ZM213.028 6.464H210.02C209.806 6.464 209.625 6.53867 209.476 6.688C209.326 6.83733 209.252 7.01867 209.252 7.232V11.008C209.252 11.2213 209.326 11.4027 209.476 11.552C209.625 11.7013 209.806 11.776 210.02 11.776H213.444C214.254 11.776 214.841 11.52 215.204 11.008C215.588 10.4747 215.78 9.87733 215.78 9.216C215.78 8.87467 215.716 8.544 215.588 8.224C215.481 7.88267 215.31 7.584 215.076 7.328C214.841 7.072 214.553 6.86933 214.212 6.72C213.87 6.54933 213.476 6.464 213.028 6.464ZM242.075 18.88V23.232C242.075 23.4453 242 23.6267 241.851 23.776C241.702 23.9253 241.52 24 241.307 24H225.339C225.104 24 224.912 23.9253 224.763 23.776C224.635 23.6267 224.571 23.4453 224.571 23.232V1.344C224.571 1.13067 224.635 0.949332 224.763 0.799999C224.912 0.650665 225.104 0.575998 225.339 0.575998H230.139C230.352 0.575998 230.534 0.650665 230.683 0.799999C230.832 0.949332 230.907 1.13067 230.907 1.344V17.344C230.907 17.5573 230.971 17.7387 231.099 17.888C231.248 18.0373 231.44 18.112 231.675 18.112H241.307C241.52 18.112 241.702 18.1867 241.851 18.336C242 18.4853 242.075 18.6667 242.075 18.88ZM261.091 1.248L252.963 14.464C252.856 14.656 252.76 14.8907 252.675 15.168C252.589 15.4453 252.547 15.6907 252.547 15.904V23.232C252.547 23.4453 252.472 23.6267 252.323 23.776C252.173 23.9253 251.992 24 251.779 24H246.947C246.733 24 246.552 23.9253 246.403 23.776C246.253 23.6267 246.179 23.4453 246.179 23.232V15.936C246.179 15.7227 246.136 15.4773 246.051 15.2C245.987 14.9013 245.901 14.6667 245.795 14.496C244.515 12.2987 243.181 10.112 241.795 7.936C240.408 5.73867 239.053 3.52 237.73 1.28C237.624 1.088 237.613 0.927999 237.698 0.799999C237.762 0.672 237.901 0.608 238.114 0.608H243.939C244.152 0.608 244.365 0.672 244.579 0.799999C244.813 0.927999 244.984 1.088 245.091 1.28L249.027 8.128C249.133 8.29867 249.261 8.384 249.411 8.384C249.56 8.384 249.688 8.29867 249.795 8.128L253.699 1.28C253.805 1.088 253.965 0.927999 254.179 0.799999C254.413 0.672 254.637 0.608 254.851 0.608H260.739C260.952 0.608 261.091 0.672 261.155 0.799999C261.219 0.927999 261.197 1.07733 261.091 1.248Z" fill="white"/>
</svg>
