<svg width="244" height="25" viewBox="0 0 244 25" fill="none" xmlns="http://www.w3.org/2000/svg">
<path d="M0.968 1.28C0.904 1.088 0.914667 0.927999 1 0.799999C1.10667 0.650665 1.27733 0.575998 1.512 0.575998H6.728C6.94133 0.575998 7.144 0.650665 7.336 0.799999C7.528 0.927999 7.656 1.088 7.72 1.28L11.464 11.936C11.528 12.1493 11.6027 12.256 11.688 12.256C11.7947 12.256 11.88 12.1493 11.944 11.936L15.56 1.312C15.624 1.09867 15.752 0.927999 15.944 0.799999C16.136 0.650665 16.3493 0.575998 16.584 0.575998H20.84C21.0747 0.575998 21.288 0.650665 21.48 0.799999C21.672 0.927999 21.8 1.09867 21.864 1.312L25.48 12C25.544 12.2133 25.6187 12.32 25.704 12.32C25.8107 12.32 25.9067 12.2133 25.992 12L29.768 1.28C29.8533 1.088 29.992 0.927999 30.184 0.799999C30.376 0.650665 30.5893 0.575998 30.824 0.575998H36.008C36.2427 0.575998 36.4027 0.650665 36.488 0.799999C36.5947 0.927999 36.616 1.088 36.552 1.28L28.776 23.264C28.6907 23.4773 28.552 23.6587 28.36 23.808C28.168 23.936 27.9547 24 27.72 24H23.592C23.3573 24 23.144 23.936 22.952 23.808C22.76 23.6587 22.632 23.4773 22.568 23.264L18.952 12.608C18.888 12.3947 18.8027 12.288 18.696 12.288C18.6107 12.288 18.536 12.3947 18.472 12.608L14.856 23.264C14.792 23.4773 14.664 23.6587 14.472 23.808C14.28 23.936 14.0667 24 13.832 24H9.704C9.46933 24 9.26667 23.9787 9.096 23.936C8.94667 23.872 8.86133 23.808 8.84 23.744L8.776 23.52L0.968 1.28ZM60.1233 1.344V23.232C60.1233 23.4453 60.0486 23.6267 59.8993 23.776C59.7499 23.9253 59.5686 24 59.3553 24H54.5553C54.3206 24 54.1286 23.9253 53.9792 23.776C53.8513 23.6267 53.7873 23.4453 53.7873 23.232V16.384C53.7873 16.1707 53.7126 15.9893 53.5633 15.84C53.4139 15.6907 53.2326 15.616 53.0193 15.616H46.4273C46.1926 15.616 46.0006 15.6907 45.8513 15.84C45.7233 15.9893 45.6593 16.1707 45.6593 16.384V23.232C45.6593 23.4453 45.5846 23.6267 45.4353 23.776C45.2859 23.9253 45.1046 24 44.8913 24H40.1233C39.8886 24 39.6966 23.9253 39.5473 23.776C39.4193 23.6267 39.3553 23.4453 39.3553 23.232V1.344C39.3553 1.13067 39.4193 0.949332 39.5473 0.799999C39.6966 0.650665 39.8886 0.575998 40.1233 0.575998H44.8913C45.1046 0.575998 45.2859 0.650665 45.4353 0.799999C45.5846 0.949332 45.6593 1.13067 45.6593 1.344V8.928C45.6593 9.14133 45.7233 9.32267 45.8513 9.472C46.0006 9.62133 46.1926 9.696 46.4273 9.696H53.0193C53.2326 9.696 53.4139 9.62133 53.5633 9.472C53.7126 9.32267 53.7873 9.14133 53.7873 8.928V1.344C53.7873 1.13067 53.8513 0.949332 53.9792 0.799999C54.1286 0.650665 54.3206 0.575998 54.5553 0.575998H59.3553C59.5686 0.575998 59.7499 0.650665 59.8993 0.799999C60.0486 0.949332 60.1233 1.13067 60.1233 1.344ZM62.325 23.296L71.765 1.312C71.8503 1.12 71.989 0.959998 72.181 0.831999C72.3943 0.682666 72.6183 0.608 72.853 0.608H77.333C77.5463 0.608 77.749 0.682666 77.941 0.831999C78.1543 0.959998 78.3037 1.12 78.389 1.312L87.829 23.296C87.9143 23.488 87.9143 23.6587 87.829 23.808C87.7437 23.936 87.5943 24 87.381 24H81.525C81.2903 24 81.0663 23.936 80.853 23.808C80.661 23.6587 80.5117 23.488 80.405 23.296L79.541 21.376C79.4343 21.184 79.2743 21.024 79.061 20.896C78.869 20.7467 78.6663 20.672 78.453 20.672H71.701C71.4663 20.672 71.2423 20.7467 71.029 20.896C70.837 21.024 70.6983 21.184 70.613 21.376L69.717 23.296C69.6317 23.488 69.4823 23.6587 69.269 23.808C69.077 23.936 68.8743 24 68.661 24H62.805C62.5703 24 62.4103 23.936 62.325 23.808C62.2397 23.6587 62.2397 23.488 62.325 23.296ZM73.653 15.232H76.501C76.7143 15.232 76.8637 15.168 76.949 15.04C77.0557 14.8907 77.0557 14.72 76.949 14.528C76.7357 13.9947 76.4797 13.376 76.181 12.672C75.8823 11.9467 75.605 11.2747 75.349 10.656C75.2637 10.464 75.1677 10.368 75.061 10.368C74.9543 10.368 74.8583 10.464 74.773 10.656L73.173 14.528C73.0877 14.72 73.0877 14.8907 73.173 15.04C73.2583 15.168 73.4183 15.232 73.653 15.232ZM102.9 6.464H98.42C98.2067 6.464 98.0253 6.53867 97.876 6.688C97.7267 6.83733 97.652 7.01867 97.652 7.232V23.232C97.652 23.4453 97.5773 23.6267 97.428 23.776C97.3 23.9253 97.1187 24 96.884 24H92.084C91.8707 24 91.6893 23.9253 91.54 23.776C91.3907 23.6267 91.316 23.4453 91.316 23.232V7.232C91.316 7.01867 91.2413 6.83733 91.092 6.688C90.964 6.53867 90.7827 6.464 90.548 6.464H86.004C85.7907 6.464 85.6093 6.38933 85.46 6.24C85.3107 6.09067 85.236 5.90933 85.236 5.696V1.344C85.236 1.13067 85.3107 0.949332 85.46 0.799999C85.6093 0.650665 85.7907 0.575998 86.004 0.575998H102.9C103.135 0.575998 103.316 0.650665 103.444 0.799999C103.593 0.949332 103.668 1.13067 103.668 1.344V5.696C103.668 5.90933 103.593 6.09067 103.444 6.24C103.316 6.38933 103.135 6.464 102.9 6.464ZM115.312 1.28C115.248 1.088 115.258 0.927999 115.344 0.799999C115.45 0.650665 115.621 0.575998 115.856 0.575998H121.072C121.285 0.575998 121.488 0.650665 121.68 0.799999C121.872 0.927999 122 1.088 122.064 1.28L125.808 11.936C125.872 12.1493 125.946 12.256 126.032 12.256C126.138 12.256 126.224 12.1493 126.288 11.936L129.904 1.312C129.968 1.09867 130.096 0.927999 130.288 0.799999C130.48 0.650665 130.693 0.575998 130.928 0.575998H135.184C135.418 0.575998 135.632 0.650665 135.824 0.799999C136.016 0.927999 136.144 1.09867 136.208 1.312L139.824 12C139.888 12.2133 139.962 12.32 140.048 12.32C140.154 12.32 140.25 12.2133 140.336 12L144.112 1.28C144.197 1.088 144.336 0.927999 144.528 0.799999C144.72 0.650665 144.933 0.575998 145.168 0.575998H150.352C150.586 0.575998 150.746 0.650665 150.832 0.799999C150.938 0.927999 150.96 1.088 150.896 1.28L143.12 23.264C143.034 23.4773 142.896 23.6587 142.704 23.808C142.512 23.936 142.298 24 142.064 24H137.936C137.701 24 137.488 23.936 137.296 23.808C137.104 23.6587 136.976 23.4773 136.912 23.264L133.296 12.608C133.232 12.3947 133.146 12.288 133.04 12.288C132.954 12.288 132.88 12.3947 132.816 12.608L129.2 23.264C129.136 23.4773 129.008 23.6587 128.816 23.808C128.624 23.936 128.41 24 128.176 24H124.048C123.813 24 123.61 23.9787 123.44 23.936C123.29 23.872 123.205 23.808 123.184 23.744L123.12 23.52L115.312 1.28ZM159.907 7.232V8.576C159.907 8.78933 159.982 8.97067 160.131 9.12C160.28 9.26933 160.462 9.344 160.675 9.344H169.347C169.56 9.344 169.742 9.41867 169.891 9.568C170.04 9.71733 170.115 9.89867 170.115 10.112V14.528C170.115 14.7413 170.04 14.9227 169.891 15.072C169.742 15.2213 169.56 15.296 169.347 15.296H160.675C160.462 15.296 160.28 15.3707 160.131 15.52C159.982 15.6693 159.907 15.8507 159.907 16.064V17.28C159.907 17.4933 159.982 17.6747 160.131 17.824C160.28 17.9733 160.462 18.048 160.675 18.048H170.627C170.84 18.048 171.022 18.1227 171.171 18.272C171.32 18.4213 171.395 18.6027 171.395 18.816V23.232C171.395 23.4453 171.32 23.6267 171.171 23.776C171.022 23.9253 170.84 24 170.627 24H154.339C154.126 24 153.944 23.9253 153.795 23.776C153.646 23.6267 153.571 23.4453 153.571 23.232V1.344C153.571 1.13067 153.646 0.949332 153.795 0.799999C153.944 0.650665 154.126 0.575998 154.339 0.575998H170.627C170.84 0.575998 171.022 0.650665 171.171 0.799999C171.32 0.949332 171.395 1.13067 171.395 1.344V5.696C171.395 5.90933 171.32 6.09067 171.171 6.24C171.022 6.38933 170.84 6.464 170.627 6.464H160.675C160.462 6.464 160.28 6.53867 160.131 6.688C159.982 6.83733 159.907 7.01867 159.907 7.232ZM186.448 23.232V1.344C186.448 1.13067 186.523 0.949332 186.672 0.799999C186.822 0.650665 187.003 0.575998 187.216 0.575998H195.952C199.302 0.575998 202.043 1.55733 204.176 3.52C205.328 4.58667 206.203 5.856 206.8 7.328C207.398 8.8 207.696 10.4533 207.696 12.288C207.696 14.1227 207.398 15.7867 206.8 17.28C206.203 18.752 205.328 20.0213 204.176 21.088C203.11 22.048 201.883 22.7733 200.496 23.264C199.131 23.7547 197.616 24 195.952 24H187.216C187.003 24 186.822 23.9253 186.672 23.776C186.523 23.6267 186.448 23.4453 186.448 23.232ZM193.552 18.112H195.952C196.55 18.112 197.168 18.0373 197.808 17.888C198.448 17.7387 199.024 17.4613 199.536 17.056C200.048 16.6293 200.464 16.0427 200.784 15.296C201.126 14.528 201.296 13.536 201.296 12.32C201.296 11.104 201.126 10.1227 200.784 9.376C200.464 8.608 200.038 8.02133 199.504 7.616C198.992 7.18933 198.416 6.90133 197.776 6.752C197.158 6.60267 196.55 6.528 195.952 6.528H193.552C193.339 6.528 193.158 6.60267 193.008 6.752C192.859 6.90133 192.784 7.08267 192.784 7.296V17.344C192.784 17.5573 192.859 17.7387 193.008 17.888C193.158 18.0373 193.339 18.112 193.552 18.112ZM210.517 12.288C210.517 10.624 210.837 9.056 211.477 7.584C212.117 6.112 212.981 4.832 214.069 3.744C215.157 2.63467 216.437 1.76 217.909 1.12C219.381 0.479998 220.949 0.159998 222.613 0.159998C224.277 0.159998 225.845 0.479998 227.317 1.12C228.789 1.76 230.069 2.63467 231.157 3.744C232.266 4.832 233.141 6.112 233.781 7.584C234.421 9.056 234.741 10.624 234.741 12.288C234.741 13.952 234.421 15.52 233.781 16.992C233.141 18.464 232.266 19.7547 231.157 20.864C230.069 21.952 228.789 22.816 227.317 23.456C225.845 24.096 224.277 24.416 222.613 24.416C220.949 24.416 219.381 24.096 217.909 23.456C216.437 22.816 215.157 21.952 214.069 20.864C212.981 19.7547 212.117 18.464 211.477 16.992C210.837 15.52 210.517 13.952 210.517 12.288ZM216.853 12.288C216.853 13.0987 217.002 13.8667 217.301 14.592C217.599 15.3173 218.005 15.9573 218.517 16.512C219.05 17.0667 219.669 17.5147 220.373 17.856C221.077 18.176 221.823 18.336 222.613 18.336C223.402 18.336 224.149 18.176 224.853 17.856C225.557 17.5147 226.175 17.0667 226.708 16.512C227.242 15.9573 227.658 15.3173 227.957 14.592C228.255 13.8667 228.405 13.0987 228.405 12.288C228.405 11.4987 228.255 10.7413 227.957 10.016C227.658 9.26933 227.242 8.62933 226.708 8.096C226.175 7.54133 225.557 7.104 224.853 6.784C224.149 6.44267 223.402 6.272 222.613 6.272C221.823 6.272 221.077 6.44267 220.373 6.784C219.669 7.104 219.05 7.54133 218.517 8.096C218.005 8.62933 217.599 9.26933 217.301 10.016C217.002 10.7413 216.853 11.4987 216.853 12.288ZM243.225 20.928C243.225 21.376 243.139 21.8027 242.969 22.208C242.798 22.6133 242.563 22.9653 242.265 23.264C241.966 23.5627 241.614 23.7973 241.209 23.968C240.803 24.1387 240.377 24.224 239.929 24.224C239.481 24.224 239.054 24.1387 238.649 23.968C238.265 23.7973 237.923 23.5627 237.625 23.264C237.326 22.9653 237.091 22.6133 236.921 22.208C236.75 21.8027 236.665 21.376 236.665 20.928C236.665 20.48 236.75 20.064 236.921 19.68C237.091 19.296 237.326 18.9547 237.625 18.656C237.923 18.3573 238.265 18.1227 238.649 17.952C239.054 17.7813 239.481 17.696 239.929 17.696C240.377 17.696 240.803 17.7813 241.209 17.952C241.614 18.1227 241.966 18.3573 242.265 18.656C242.563 18.9547 242.798 19.296 242.969 19.68C243.139 20.064 243.225 20.48 243.225 20.928Z" fill="white"/>
</svg>
